<svg id="visual" viewBox="0 0 900 450" width="900" height="450" xmlns="http://www.w3.org/2000/svg" xmlns:xlink="http://www.w3.org/1999/xlink" version="1.1"><rect x="0" y="0" width="900" height="450" fill="#000000"></rect><path d="M0 286L56 360L113 397L169 290L225 241L281 388L338 218L394 287L450 224L506 230L563 332L619 66L675 267L731 166L788 364L844 166L900 120L900 451L844 451L788 451L731 451L675 451L619 451L563 451L506 451L450 451L394 451L338 451L281 451L225 451L169 451L113 451L56 451L0 451Z" fill="#8a9804" stroke-linecap="square" stroke-linejoin="bevel"></path></svg>